<svg xmlns="http://www.w3.org/2000/svg" xmlns:xlink="http://www.w3.org/1999/xlink" width="1294.672" height="536.651" viewBox="0 0 1294.672 536.651"><defs><linearGradient id="a" x1="0.835" y1="0.896" x2="0.013" y2="0.056" gradientUnits="objectBoundingBox"><stop offset="0" stop-color="#004b89"/><stop offset="1" stop-color="#008bfd"/></linearGradient><clipPath id="b"><path d="M1274.283,0H20.388C9.128,0,0,8.243,0,18.411V478.7c0,10.168,9.128,18.411,20.388,18.411H1274.283c11.26,0,20.389-8.243,20.389-18.411V18.411C1294.672,8.243,1285.543,0,1274.283,0Z" transform="translate(-0.001)" fill="#387db8" style="mix-blend-mode:multiply;isolation:isolate"/></clipPath><clipPath id="c"><rect width="1329" height="716.333" fill="#387db8"/></clipPath><clipPath id="d"><rect width="1320.049" height="548.743" fill="#387db8"/></clipPath><linearGradient id="e" x1="0.725" y1="0.055" x2="0.025" y2="1.015" gradientUnits="objectBoundingBox"><stop offset="0" stop-color="#2574b7"/><stop offset="1" stop-color="#01447b"/></linearGradient><linearGradient id="f" x1="0.5" x2="0.5" y2="1" gradientUnits="objectBoundingBox"><stop offset="0" stop-color="#cce951"/><stop offset="1" stop-color="#7c9a02"/></linearGradient></defs><g transform="translate(-152.664)"><path d="M20.388,0H1274.283c11.26,0,20.388,8.239,20.388,18.4V478.434c0,10.163-9.128,18.4-20.388,18.4H20.388C9.128,496.835,0,488.6,0,478.434V18.4C0,8.239,9.128,0,20.388,0Z" transform="translate(152.664)" fill="url(#a)"/><g transform="translate(152.665)" clip-path="url(#b)"><g transform="translate(-21.579 -175.101)"><g clip-path="url(#c)"><g transform="translate(8.952 157.711)"><g clip-path="url(#d)"><path d="M0,1161.7H1411.139V0H0Z" transform="matrix(-0.85, -0.527, 0.527, -0.85, 953.889, 1139.739)" fill="#387db8"/></g></g></g></g><g transform="translate(-3.925 -23.539)"><g transform="translate(0 0)"><path d="M0,0H1319.006V539.447H0Z" fill="url(#e)"/></g></g><path d="M603.333,515.907s288.954-72.58,392-194.2S974.8,0,974.8,0H1343.52V497.272Z" transform="translate(-28.438 0)" fill="url(#f)"/><path d="M1343.52,515.907s-288.954-72.58-392-194.2S972.057,0,972.057,0H603.333V497.272Z" transform="translate(-607.257 1.962)" fill="#fff" opacity="0.1"/></g><g transform="translate(572.676 405.189)"><path d="M82.189,0,71.99,7.846,61.787,0l-10.2,7.846L41.391,0,31.2,7.846,21,0,10.8,7.846,1.2.461,0,2.015l10.8,8.306L21,2.475l10.2,7.846,10.2-7.846,10.2,7.846,10.2-7.846,10.2,7.846,10.2-7.846L92.4,10.321l10.8-8.306L102,.46,92.4,7.847Z" transform="translate(-0.001 0)" fill="#bbe7f6"/><path d="M71.99,17.846,61.788,10l-10.2,7.846L41.391,10,31.2,17.846,21,10,10.8,17.846,1.2,10.461,0,12.015l10.8,8.306L21,12.474l10.2,7.847,10.2-7.847,10.2,7.847,10.2-7.847,10.2,7.847,10.2-7.847L92.4,20.321l10.8-8.306-1.195-1.556L92.4,17.847,82.19,10Z" transform="translate(-0.001 -0.192)" fill="#bbe7f6"/></g><g transform="translate(212.025 345.259)"><path d="M19.875,238.564l-.546-13.66,13.661.546.119-2.993-16.9-.676.676,16.9Z" transform="translate(-16.206 -221.782)" fill="#f4dd4e"/><path d="M11.772,246.666l-.546-13.659,13.661.546.119-2.994-16.9-.676.676,16.9Z" transform="translate(-0.157 -221.937)" fill="#f4dd4e"/><path d="M16.9,238.661l-.121,2.994L3.124,241.11l.546,13.659-2.994.12L0,237.985Z" transform="translate(15.893 -222.093)" fill="#f4dd4e"/></g><g transform="translate(756.56 10.829) rotate(47)" fill="none" stroke="#fff" stroke-width="2"><ellipse cx="16.208" cy="11.059" rx="16.208" ry="11.059" stroke="none"/><ellipse cx="16.208" cy="11.059" rx="15.208" ry="10.059" fill="none"/></g><g transform="translate(196.742 212.551) rotate(47)" fill="none" opacity="0.5"><path d="M16.208,0C25.16,0,32.416,4.951,32.416,11.059S25.16,22.119,16.208,22.119,0,17.167,0,11.059,7.257,0,16.208,0Z" stroke="none"/><path d="M 16.20820617675781 3 C 14.30161666870117 3 12.45884704589844 3.252830505371094 10.73108673095703 3.751461029052734 C 9.107526779174805 4.220020294189453 7.663166046142578 4.881431579589844 6.438146591186523 5.717300415039062 C 5.154106140136719 6.593430519104004 2.999996185302734 8.452481269836426 2.999996185302734 11.05933094024658 C 2.999996185302734 13.66618061065674 5.154106140136719 15.52523040771484 6.438146591186523 16.4013614654541 C 7.663166046142578 17.23723030090332 9.107526779174805 17.89864158630371 10.73108673095703 18.36720085144043 C 12.45884704589844 18.86583137512207 14.30161666870117 19.11865997314453 16.20820617675781 19.11865997314453 C 18.11479568481445 19.11865997314453 19.95755577087402 18.86583137512207 21.68531608581543 18.36720085144043 C 23.30888748168945 17.89864158630371 24.75323677062988 17.23723030090332 25.9782657623291 16.4013614654541 C 27.26230621337891 15.52523040771484 29.41641616821289 13.66618061065674 29.41641616821289 11.05933094024658 C 29.41641616821289 8.452481269836426 27.26230621337891 6.593430519104004 25.9782657623291 5.717300415039062 C 24.75323677062988 4.881431579589844 23.30888748168945 4.220020294189453 21.68531608581543 3.751461029052734 C 19.95755577087402 3.252830505371094 18.11479568481445 3 16.20820617675781 3 M 16.20820617675781 0 C 25.15974617004395 0 32.41641616821289 4.951431274414062 32.41641616821289 11.05933094024658 C 32.41641616821289 17.1672306060791 25.15974617004395 22.11866188049316 16.20820617675781 22.11866188049316 C 7.256656646728516 22.11866188049316 -3.814697265625e-06 17.1672306060791 -3.814697265625e-06 11.05933094024658 C -3.814697265625e-06 4.951431274414062 7.256656646728516 0 16.20820617675781 0 Z" stroke="none" fill="#fff"/></g><g transform="translate(180.351 21.468)"><path d="M82.189,0,71.99,7.846,61.787,0l-10.2,7.846L41.391,0,31.2,7.846,21,0,10.8,7.846,1.2.461,0,2.015l10.8,8.306L21,2.475l10.2,7.846,10.2-7.846,10.2,7.846,10.2-7.846,10.2,7.846,10.2-7.846L92.4,10.321l10.8-8.306L102,.46,92.4,7.847Z" transform="translate(-0.001 0)" fill="#bbe7f6"/><path d="M71.99,17.846,61.788,10l-10.2,7.846L41.391,10,31.2,17.846,21,10,10.8,17.846,1.2,10.461,0,12.015l10.8,8.306L21,12.474l10.2,7.847,10.2-7.847,10.2,7.847,10.2-7.847,10.2,7.847,10.2-7.847L92.4,20.321l10.8-8.306-1.195-1.556L92.4,17.847,82.19,10Z" transform="translate(-0.001 -0.192)" fill="#bbe7f6"/></g><g transform="translate(11218.248 12523.086)"><path d="M416.049,103.656a.918.918,0,1,1-.918-.877A.9.9,0,0,1,416.049,103.656Z" transform="translate(-11447.97 -12119.038)" fill="#fff"/><path d="M424.495,103.656a.918.918,0,1,1-.917-.877A.9.9,0,0,1,424.495,103.656Z" transform="translate(-11448.161 -12119.038)" fill="#fff"/><path d="M432.941,103.656a.918.918,0,1,1-.917-.877A.9.9,0,0,1,432.941,103.656Z" transform="translate(-11448.352 -12119.038)" fill="#fff"/><path d="M441.388,103.656a.918.918,0,1,1-.918-.877A.9.9,0,0,1,441.388,103.656Z" transform="translate(-11448.543 -12119.038)" fill="#fff"/><path d="M449.834,103.656a.918.918,0,1,1-.917-.877A.9.9,0,0,1,449.834,103.656Z" transform="translate(-11448.733 -12119.038)" fill="#fff"/><ellipse cx="0.917" cy="0.877" rx="0.917" ry="0.877" transform="translate(-11033.756 -12009.241)" fill="#fff"/><path d="M424.495,111.164a.918.918,0,1,1-.917-.877A.9.9,0,0,1,424.495,111.164Z" transform="translate(-11448.161 -12119.528)" fill="#fff"/><ellipse cx="0.917" cy="0.877" rx="0.917" ry="0.877" transform="translate(-11017.245 -12009.241)" fill="#fff"/><path d="M441.388,111.164a.918.918,0,1,1-.918-.877A.9.9,0,0,1,441.388,111.164Z" transform="translate(-11448.543 -12119.528)" fill="#fff"/><path d="M449.834,111.164a.918.918,0,1,1-.917-.877A.9.9,0,0,1,449.834,111.164Z" transform="translate(-11448.733 -12119.528)" fill="#fff"/><path d="M416.049,118.672a.918.918,0,1,1-.918-.878A.9.9,0,0,1,416.049,118.672Z" transform="translate(-11447.97 -12120.019)" fill="#fff"/><path d="M424.495,118.672a.918.918,0,1,1-.917-.878A.9.9,0,0,1,424.495,118.672Z" transform="translate(-11448.161 -12120.019)" fill="#fff"/><path d="M432.941,118.672a.918.918,0,1,1-.917-.878A.9.9,0,0,1,432.941,118.672Z" transform="translate(-11448.352 -12120.019)" fill="#fff"/><path d="M441.388,118.672a.918.918,0,1,1-.918-.878A.9.9,0,0,1,441.388,118.672Z" transform="translate(-11448.543 -12120.019)" fill="#fff"/><path d="M449.834,118.672a.918.918,0,1,1-.917-.878A.9.9,0,0,1,449.834,118.672Z" transform="translate(-11448.733 -12120.019)" fill="#fff"/><ellipse cx="0.917" cy="0.877" rx="0.917" ry="0.877" transform="translate(-11033.756 -11995.206)" fill="#fff"/><path d="M424.495,126.18a.918.918,0,1,1-.917-.878A.9.9,0,0,1,424.495,126.18Z" transform="translate(-11448.161 -12120.509)" fill="#fff"/><ellipse cx="0.917" cy="0.877" rx="0.917" ry="0.877" transform="translate(-11017.245 -11995.206)" fill="#fff"/><path d="M441.388,126.18a.918.918,0,1,1-.918-.878A.9.9,0,0,1,441.388,126.18Z" transform="translate(-11448.543 -12120.509)" fill="#fff"/><path d="M449.834,126.18a.918.918,0,1,1-.917-.878A.9.9,0,0,1,449.834,126.18Z" transform="translate(-11448.733 -12120.509)" fill="#fff"/><ellipse cx="0.917" cy="0.877" rx="0.917" ry="0.877" transform="translate(-11033.756 -11988.189)" fill="#fff"/><path d="M424.495,133.688a.918.918,0,1,1-.917-.878A.9.9,0,0,1,424.495,133.688Z" transform="translate(-11448.161 -12120.999)" fill="#fff"/><ellipse cx="0.917" cy="0.877" rx="0.917" ry="0.877" transform="translate(-11017.245 -11988.189)" fill="#fff"/><path d="M441.388,133.688a.918.918,0,1,1-.918-.878A.9.9,0,0,1,441.388,133.688Z" transform="translate(-11448.543 -12120.999)" fill="#fff"/><path d="M449.834,133.688a.918.918,0,1,1-.917-.878A.9.9,0,0,1,449.834,133.688Z" transform="translate(-11448.733 -12120.999)" fill="#fff"/></g></g></svg>