<svg id="Grupo_80596" data-name="Grupo 80596" xmlns="http://www.w3.org/2000/svg" xmlns:xlink="http://www.w3.org/1999/xlink" width="161" height="146.204" viewBox="0 0 161 146.204">
  <defs>
    <clipPath id="clip-path">
      <rect id="Rectángulo_34100" data-name="Rectángulo 34100" width="161" height="146.204" fill="none" stroke="#707070" stroke-width="5"/>
    </clipPath>
  </defs>
  <g id="Grupo_80595" data-name="Grupo 80595" clip-path="url(#clip-path)">
    <path id="Trazado_116230" data-name="Trazado 116230" d="M187.451,104.331l4.714,8.677a4.757,4.757,0,0,0,6.377,1.857l28.806-14.746a4.748,4.748,0,0,0,2.122-6.456l-15.715-28.93" transform="translate(-104.807 -36.193)" fill="none" stroke="#363636" stroke-linecap="round" stroke-linejoin="round" stroke-width="5"/>
    <path id="Trazado_116231" data-name="Trazado 116231" d="M88.761,61.32l1.287-2.208c2.215-3.8,1.48-5.57,1.447-7.3-.063-3.277-1.5-11.685,5.656-23.957L108.2,8.9a5.468,5.468,0,0,1,7.515-1.808l.125.073a5.644,5.644,0,0,1,2.22,7.674L107.386,33.153,122.592,7.069a5.636,5.636,0,0,1,7.747-1.863,5.636,5.636,0,0,1,2.2,7.659L121.661,31.516,135.907,7.078a5.637,5.637,0,0,1,7.747-1.863l.236.137a5.369,5.369,0,0,1,2.091,7.3L131.346,37.754,143.957,16.3a5.468,5.468,0,0,1,7.514-1.808l.125.073a5.643,5.643,0,0,1,2.22,7.674L138.021,49.334" transform="translate(-49.628 -2.456)" fill="none" stroke="#363636" stroke-linecap="round" stroke-linejoin="round" stroke-width="5"/>
    <path id="Trazado_116232" data-name="Trazado 116232" d="M182.268,95.631l.746-1.28a6.7,6.7,0,0,1,9.207-2.215,4.621,4.621,0,0,1,1.8,6.28,137.01,137.01,0,0,1-9.641,13.487c-6.653,7.667-12.263,7.962-14.659,8.279a12.1,12.1,0,0,0-4.139,1.287" transform="translate(-92.58 -50.974)" fill="none" stroke="#363636" stroke-linecap="round" stroke-linejoin="round" stroke-width="5"/>
    <path id="Trazado_116233" data-name="Trazado 116233" d="M83.619,166.968,89.9,156.221a4.775,4.775,0,0,0-1.858-6.492L59.829,133.282a4.775,4.775,0,0,0-6.561,1.575L36.146,164.164" transform="translate(-20.21 -74.135)" fill="none" stroke="#363636" stroke-linecap="round" stroke-linejoin="round" stroke-width="5"/>
    <path id="Trazado_116234" data-name="Trazado 116234" d="M80.51,260.212H77.954c-4.4,0-5.557,1.5-7.033,2.386-2.8,1.677-9.34,7.065-23.545,7.065H18.326a5.421,5.421,0,0,1-5.347-5.493v-.142a5.6,5.6,0,0,1,5.511-5.69H13.643a5.664,5.664,0,0,1,0-11.325H9.9a5.588,5.588,0,0,1-5.511-5.662v-.268a5.323,5.323,0,0,1,5.25-5.394H38.7L13.818,235.6a5.421,5.421,0,0,1-5.346-5.493v-.142a5.6,5.6,0,0,1,5.511-5.69H45.345" transform="translate(-2.456 -125.396)" fill="none" stroke="#363636" stroke-linecap="round" stroke-linejoin="round" stroke-width="5"/>
    <path id="Trazado_116235" data-name="Trazado 116235" d="M81.26,209.854H79.779a6.642,6.642,0,0,1-6.551-6.73,4.582,4.582,0,0,1,4.519-4.643,139.148,139.148,0,0,1,16.507,1.512c9.975,1.856,13.055,6.479,14.535,8.359a12.05,12.05,0,0,0,3.16,2.859" transform="translate(-40.943 -110.974)" fill="none" stroke="#363636" stroke-linecap="round" stroke-linejoin="round" stroke-width="5"/>
    <path id="Trazado_116236" data-name="Trazado 116236" d="M190.952,220.751l-9.245,0a4.734,4.734,0,0,0-4.669,4.8v32.133a4.734,4.734,0,0,0,4.669,4.8l28.96,0" transform="translate(-98.985 -123.425)" fill="none" stroke="#363636" stroke-linecap="round" stroke-linejoin="round" stroke-width="5"/>
    <path id="Trazado_116237" data-name="Trazado 116237" d="M258.9,144l1.079,2.107c2,3.916,3.878,4.258,5.344,5.166,2.779,1.722,10.59,5.072,17.064,17.716l11.758,22.976a5.441,5.441,0,0,1-2.488,7.279l-.127.065a5.616,5.616,0,0,1-7.613-2.294L272.5,174.7l15.143,29.56a5.706,5.706,0,0,1-10.153,5.2l-11.223-21.9,12.89,25.179a5.609,5.609,0,0,1-2.565,7.5l-.241.123a5.344,5.344,0,0,1-7.228-2.2L255.88,192.3l11.259,22.191a5.441,5.441,0,0,1-2.488,7.279l-.127.065a5.616,5.616,0,0,1-7.613-2.294L242.62,191.625" transform="translate(-135.653 -80.512)" fill="none" stroke="#363636" stroke-linecap="round" stroke-linejoin="round" stroke-width="5"/>
    <path id="Trazado_116238" data-name="Trazado 116238" d="M225.073,222.49l.675,1.319a6.55,6.55,0,0,1-2.846,8.816,4.519,4.519,0,0,1-6.082-1.963,142.863,142.863,0,0,1-6.212-15.364c-2.937-9.7-.335-14.495.619-16.646a12.158,12.158,0,0,0,1-3.6" transform="translate(-116.996 -109.057)" fill="none" stroke="#363636" stroke-linecap="round" stroke-linejoin="round" stroke-width="5"/>
  </g>
</svg>
