<svg id="Grupo_80600" data-name="Grupo 80600" xmlns="http://www.w3.org/2000/svg" xmlns:xlink="http://www.w3.org/1999/xlink" width="92" height="87.821" viewBox="0 0 92 87.821">
  <defs>
    <clipPath id="clip-path">
      <rect id="Rectángulo_34102" data-name="Rectángulo 34102" width="92" height="87.821" fill="none" stroke="#12263f" stroke-width="5"/>
    </clipPath>
  </defs>
  <g id="Grupo_80599" data-name="Grupo 80599" clip-path="url(#clip-path)">
    <path id="Trazado_116248" data-name="Trazado 116248" d="M212,269.021a2.322,2.322,0,0,1-2.2-2.445l.07-4.25c-.132-5.135,2.863-10.085,6.877-11.644a35.013,35.013,0,0,1,20.84.08c4.009,1.59,6.98,6.568,6.816,11.706l.033,4.159a2.32,2.32,0,0,1-2.206,2.431Z" transform="translate(-153.616 -182.416)" fill="none" stroke="#12263f" stroke-linecap="round" stroke-linejoin="round" stroke-width="5"/>
    <line id="Línea_154" data-name="Línea 154" x1="0.022" y1="8.278" transform="translate(65.181 78.164)" fill="none" stroke="#12263f" stroke-linecap="round" stroke-linejoin="round" stroke-width="5"/>
    <line id="Línea_155" data-name="Línea 155" x1="0.085" y2="8.201" transform="translate(81.724 78.24)" fill="none" stroke="#12263f" stroke-linecap="round" stroke-linejoin="round" stroke-width="5"/>
    <path id="Trazado_116249" data-name="Trazado 116249" d="M6.594,269.021a2.322,2.322,0,0,1-2.2-2.445l.07-4.25c-.132-5.135,2.863-10.085,6.877-11.644a27.741,27.741,0,0,1,10.43-1.546,27.76,27.76,0,0,1,10.41,1.627c4.009,1.59,6.98,6.568,6.816,11.706l.033,4.159a2.32,2.32,0,0,1-2.206,2.431Z" transform="translate(-3.217 -182.416)" fill="none" stroke="#12263f" stroke-linecap="round" stroke-linejoin="round" stroke-width="5"/>
    <line id="Línea_156" data-name="Línea 156" x1="0.022" y1="8.278" transform="translate(10.171 78.164)" fill="none" stroke="#12263f" stroke-linecap="round" stroke-linejoin="round" stroke-width="5"/>
    <line id="Línea_157" data-name="Línea 157" x1="0.085" y2="8.201" transform="translate(26.714 78.24)" fill="none" stroke="#12263f" stroke-linecap="round" stroke-linejoin="round" stroke-width="5"/>
    <path id="Trazado_116250" data-name="Trazado 116250" d="M38.888,174.284a8.081,8.081,0,1,0,8.053-8.108A8.08,8.08,0,0,0,38.888,174.284Z" transform="translate(-28.473 -121.673)" fill="none" stroke="#12263f" stroke-linecap="round" stroke-linejoin="round" stroke-width="5"/>
    <path id="Trazado_116251" data-name="Trazado 116251" d="M244.3,174.284a8.081,8.081,0,1,0,8.053-8.108A8.081,8.081,0,0,0,244.3,174.284Z" transform="translate(-178.872 -121.673)" fill="none" stroke="#12263f" stroke-linecap="round" stroke-linejoin="round" stroke-width="5"/>
    <path id="Trazado_116252" data-name="Trazado 116252" d="M28.577,72.049A12.408,12.408,0,0,1,27.29,67.3a9.591,9.591,0,0,1,9.531-9.634,9.829,9.829,0,0,1,7.231,2.91" transform="translate(-19.98 -42.218)" fill="none" stroke="#12263f" stroke-linecap="round" stroke-linejoin="round" stroke-width="5"/>
    <path id="Trazado_116253" data-name="Trazado 116253" d="M78.525,22.443a10.492,10.492,0,0,1,1.513-9.37A11.333,11.333,0,0,1,95.5,10.4a10.668,10.668,0,0,1,4.639,7.41" transform="translate(-57.13 -6.197)" fill="none" stroke="#12263f" stroke-linecap="round" stroke-linejoin="round" stroke-width="5"/>
    <path id="Trazado_116254" data-name="Trazado 116254" d="M159.29,10.441a11.211,11.211,0,0,1,20.844,2.529,10.5,10.5,0,0,1-1.878,8.488" transform="translate(-116.631 -3.216)" fill="none" stroke="#12263f" stroke-linecap="round" stroke-linejoin="round" stroke-width="5"/>
    <path id="Trazado_116255" data-name="Trazado 116255" d="M238.206,37.125A11.359,11.359,0,0,1,244.363,36a10.834,10.834,0,0,1,9.928,11.78,10.573,10.573,0,0,1-2.421,5.7" transform="translate(-174.413 -26.318)" fill="none" stroke="#12263f" stroke-linecap="round" stroke-linejoin="round" stroke-width="5"/>
    <path id="Trazado_116256" data-name="Trazado 116256" d="M298.7,82.8a11.2,11.2,0,0,1,6.563,3.848,10.532,10.532,0,0,1-.42,14.011" transform="translate(-218.706 -60.626)" fill="none" stroke="#12263f" stroke-linecap="round" stroke-linejoin="round" stroke-width="5"/>
    <path id="Trazado_116257" data-name="Trazado 116257" d="M84.644,69.139a7.694,7.694,0,0,1,.511-4.2,7.281,7.281,0,0,1,9.187-3.729" transform="translate(-61.911 -44.446)" fill="none" stroke="#12263f" stroke-linecap="round" stroke-linejoin="round" stroke-width="5"/>
    <path id="Trazado_116258" data-name="Trazado 116258" d="M193.833,61.627a8,8,0,0,1,5.419-1.032,7.22,7.22,0,0,1,5.479,9.024" transform="translate(-141.923 -44.277)" fill="none" stroke="#12263f" stroke-linecap="round" stroke-linejoin="round" stroke-width="5"/>
    <path id="Trazado_116259" data-name="Trazado 116259" d="M143.2,103.156l-3.68,18.183h7.324l-2.523,17.138,16.464-22.6-8.823-.126,3.066-12.427Z" transform="translate(-102.155 -75.53)" fill="none" stroke="#12263f" stroke-linecap="round" stroke-linejoin="round" stroke-width="5"/>
    <path id="Trazado_116260" data-name="Trazado 116260" d="M16.471,120.246a8.642,8.642,0,0,1,10.787-11.9" transform="translate(-11.413 -78.927)" fill="none" stroke="#12263f" stroke-linecap="round" stroke-linejoin="round" stroke-width="5"/>
  </g>
</svg>
