<svg id="Grupo_80598" data-name="Grupo 80598" xmlns="http://www.w3.org/2000/svg" xmlns:xlink="http://www.w3.org/1999/xlink" width="106.706" height="102.034" viewBox="0 0 106.706 102.034">
  <defs>
    <clipPath id="clip-path">
      <rect id="Rectángulo_34101" data-name="Rectángulo 34101" width="106.706" height="102.034" fill="none" stroke="#12263f" stroke-width="5"/>
    </clipPath>
  </defs>
  <g id="Grupo_80597" data-name="Grupo 80597" clip-path="url(#clip-path)">
    <path id="Trazado_116239" data-name="Trazado 116239" d="M161.09,185.752a8.87,8.87,0,1,1-8.839-8.9A8.87,8.87,0,0,1,161.09,185.752Z" transform="translate(-98.898 -122.01)" fill="none" stroke="#12263f" stroke-linecap="round" stroke-linejoin="round" stroke-width="5"/>
    <path id="Trazado_116240" data-name="Trazado 116240" d="M112.793,276.267a2.411,2.411,0,0,1-2.408-2.436l.077-6.1c-.145-5.118,3.133-10.052,7.525-11.606a33.067,33.067,0,0,1,11.412-1.542,33.064,33.064,0,0,1,11.39,1.622c4.386,1.585,7.637,6.547,7.458,11.668l.037,6.013a2.411,2.411,0,0,1-2.414,2.423Z" transform="translate(-76.154 -175.635)" fill="none" stroke="#12263f" stroke-linecap="round" stroke-linejoin="round" stroke-width="5"/>
    <line id="Línea_145" data-name="Línea 145" x1="0.024" y1="10.118" transform="translate(44.072 90.352)" fill="none" stroke="#12263f" stroke-linecap="round" stroke-linejoin="round" stroke-width="5"/>
    <line id="Línea_146" data-name="Línea 146" x1="0.093" y2="10.041" transform="translate(62.172 90.428)" fill="none" stroke="#12263f" stroke-linecap="round" stroke-linejoin="round" stroke-width="5"/>
    <path id="Trazado_116241" data-name="Trazado 116241" d="M268.2,13.293a8.87,8.87,0,1,1-8.839-8.9A8.87,8.87,0,0,1,268.2,13.293Z" transform="translate(-172.793 -3.031)" fill="none" stroke="#12263f" stroke-linecap="round" stroke-linejoin="round" stroke-width="5"/>
    <path id="Trazado_116242" data-name="Trazado 116242" d="M219.9,103.808a2.411,2.411,0,0,1-2.408-2.436l.077-6.1c-.145-5.118,3.133-10.052,7.525-11.606a33.067,33.067,0,0,1,11.412-1.542,33.064,33.064,0,0,1,11.39,1.622c4.386,1.585,7.637,6.547,7.458,11.668l.037,6.013a2.411,2.411,0,0,1-2.414,2.423Z" transform="translate(-150.05 -56.655)" fill="none" stroke="#12263f" stroke-linecap="round" stroke-linejoin="round" stroke-width="5"/>
    <line id="Línea_147" data-name="Línea 147" x1="0.024" y1="10.118" transform="translate(77.288 36.872)" fill="none" stroke="#12263f" stroke-linecap="round" stroke-linejoin="round" stroke-width="5"/>
    <line id="Línea_148" data-name="Línea 148" x1="0.093" y2="10.041" transform="translate(95.388 36.948)" fill="none" stroke="#12263f" stroke-linecap="round" stroke-linejoin="round" stroke-width="5"/>
    <path id="Trazado_116243" data-name="Trazado 116243" d="M36.434,13.293a8.87,8.87,0,1,0,8.839-8.9A8.87,8.87,0,0,0,36.434,13.293Z" transform="translate(-25.136 -3.031)" fill="none" stroke="#12263f" stroke-linecap="round" stroke-linejoin="round" stroke-width="5"/>
    <path id="Trazado_116244" data-name="Trazado 116244" d="M39.883,103.808a2.411,2.411,0,0,0,2.408-2.436l-.077-6.1c.145-5.118-3.133-10.052-7.525-11.606a33.067,33.067,0,0,0-11.412-1.542,33.064,33.064,0,0,0-11.39,1.622C7.5,85.328,4.25,90.29,4.43,95.41l-.037,6.013a2.411,2.411,0,0,0,2.414,2.423Z" transform="translate(-3.031 -56.655)" fill="none" stroke="#12263f" stroke-linecap="round" stroke-linejoin="round" stroke-width="5"/>
    <line id="Línea_149" data-name="Línea 149" y1="10.118" x2="0.024" transform="translate(29.394 36.872)" fill="none" stroke="#12263f" stroke-linecap="round" stroke-linejoin="round" stroke-width="5"/>
    <line id="Línea_150" data-name="Línea 150" x2="0.093" y2="10.041" transform="translate(11.226 36.948)" fill="none" stroke="#12263f" stroke-linecap="round" stroke-linejoin="round" stroke-width="5"/>
    <path id="Trazado_116245" data-name="Trazado 116245" d="M45.019,222.261,55.545,225l1.122-10.818" transform="translate(-31.059 -147.763)" fill="none" stroke="#12263f" stroke-linecap="round" stroke-linejoin="round" stroke-width="5"/>
    <line id="Línea_151" data-name="Línea 151" x1="12.165" y1="17.15" transform="translate(12.322 60.085)" fill="none" stroke="#12263f" stroke-linecap="round" stroke-linejoin="round" stroke-width="5"/>
    <path id="Trazado_116246" data-name="Trazado 116246" d="M278.853,203.46l-.507-10.864-10.664,2.136" transform="translate(-184.673 -132.871)" fill="none" stroke="#12263f" stroke-linecap="round" stroke-linejoin="round" stroke-width="5"/>
    <line id="Línea_152" data-name="Línea 152" x1="13.02" y2="16.924" transform="translate(80.653 59.724)" fill="none" stroke="#12263f" stroke-linecap="round" stroke-linejoin="round" stroke-width="5"/>
    <path id="Trazado_116247" data-name="Trazado 116247" d="M153.9,25.372l-8.241,7.1,8.257,7.079" transform="translate(-100.493 -17.504)" fill="none" stroke="#12263f" stroke-linecap="round" stroke-linejoin="round" stroke-width="5"/>
    <line id="Línea_153" data-name="Línea 153" y1="0.117" x2="18.283" transform="translate(45.171 14.849)" fill="none" stroke="#12263f" stroke-linecap="round" stroke-linejoin="round" stroke-width="5"/>
  </g>
</svg>
