<svg xmlns="http://www.w3.org/2000/svg" xmlns:xlink="http://www.w3.org/1999/xlink" width="85" height="85" viewBox="0 0 85 85">
  <defs>
    <clipPath id="clip-path">
      <rect id="Rectángulo_34062" data-name="Rectángulo 34062" width="51.717" height="51.719" fill="#fff"/>
    </clipPath>
  </defs>
  <g id="Grupo_80627" data-name="Grupo 80627" transform="translate(-285 -1295)">
    <circle id="Elipse_4755" data-name="Elipse 4755" cx="42.5" cy="42.5" r="42.5" transform="translate(285 1295)" fill="#387db8"/>
    <g id="Grupo_80571" data-name="Grupo 80571" transform="translate(302 1312)">
      <g id="Grupo_80570" data-name="Grupo 80570" clip-path="url(#clip-path)">
        <path id="Trazado_116163" data-name="Trazado 116163" d="M62.732,62.743a12.522,12.522,0,1,0,17.708,0,12.536,12.536,0,0,0-17.708,0M78.878,78.889a10.312,10.312,0,1,1,0-14.583,10.324,10.324,0,0,1,0,14.583" transform="translate(-48.696 -48.705)" fill="#fff"/>
        <path id="Trazado_116164" data-name="Trazado 116164" d="M201.638,196.017l-10.682-10.682a2.062,2.062,0,0,0-2.916,0l-.186.186-2.917-2.917a14.687,14.687,0,0,1-2.343,2.343l2.917,2.917-.186.186a2.062,2.062,0,0,0,0,2.916l10.682,10.682a2.062,2.062,0,0,0,2.916,0l2.716-2.716a2.062,2.062,0,0,0,0-2.916" transform="translate(-150.525 -150.534)" fill="#fff"/>
        <path id="Trazado_116165" data-name="Trazado 116165" d="M22.9,37.339a14.431,14.431,0,1,1,12.377-7l2.282,2.282a3.9,3.9,0,0,1,1.4-.261,18.519,18.519,0,0,0,1.988-4.8l4.562-.912a.368.368,0,0,0,.3-.361V19.524a.368.368,0,0,0-.3-.361l-4.562-.912a18.52,18.52,0,0,0-2-4.814l2.582-3.873A.368.368,0,0,0,41.49,9.1L36.71,4.318a.368.368,0,0,0-.465-.046L32.372,6.854a18.516,18.516,0,0,0-4.814-2L26.646.3a.368.368,0,0,0-.361-.3H19.524a.368.368,0,0,0-.361.3L18.25,4.858a18.517,18.517,0,0,0-4.814,2L9.563,4.272a.368.368,0,0,0-.465.046L4.318,9.1a.368.368,0,0,0-.046.465l2.582,3.873a18.52,18.52,0,0,0-2,4.814L.3,19.163a.368.368,0,0,0-.3.361v6.761a.368.368,0,0,0,.3.361l4.562.912a18.518,18.518,0,0,0,2,4.814L4.272,36.245a.368.368,0,0,0,.046.465L9.1,41.491a.368.368,0,0,0,.465.046l3.873-2.582a18.517,18.517,0,0,0,4.814,2l.912,4.561a.368.368,0,0,0,.361.3h6.761a.368.368,0,0,0,.361-.3l.912-4.561a18.518,18.518,0,0,0,4.8-1.987,3.9,3.9,0,0,1,.261-1.4l-2.282-2.282A14.368,14.368,0,0,1,22.9,37.339" fill="#fff"/>
        <path id="Trazado_116166" data-name="Trazado 116166" d="M101.531,104.98l-3.622-2.771-1.3,1.7,5.51,4.215,6.661-10.839-1.829-1.124Z" transform="translate(-79.639 -79.277)" fill="#fff"/>
      </g>
    </g>
  </g>
</svg>
