<svg id="Grupo_80607" data-name="Grupo 80607" xmlns="http://www.w3.org/2000/svg" xmlns:xlink="http://www.w3.org/1999/xlink" width="88.065" height="91.35" viewBox="0 0 88.065 91.35">
  <defs>
    <clipPath id="clip-path">
      <rect id="Rectángulo_34103" data-name="Rectángulo 34103" width="88.065" height="91.35" fill="none" stroke="#12263f" stroke-width="5"/>
    </clipPath>
  </defs>
  <g id="Grupo_80602" data-name="Grupo 80602">
    <g id="Grupo_80601" data-name="Grupo 80601" clip-path="url(#clip-path)">
      <line id="Línea_158" data-name="Línea 158" x2="17.086" transform="translate(69.112 40.605)" fill="none" stroke="#12263f" stroke-linecap="round" stroke-linejoin="round" stroke-width="5"/>
      <path id="Trazado_116261" data-name="Trazado 116261" d="M296.59,125.113l5.832,6.517-5.832,6.517" transform="translate(-215.557 -90.93)" fill="none" stroke="#12263f" stroke-linecap="round" stroke-linejoin="round" stroke-width="5"/>
    </g>
  </g>
  <line id="Línea_159" data-name="Línea 159" x2="12.566" y2="12.566" transform="translate(64.32 60.399)" fill="none" stroke="#12263f" stroke-linecap="round" stroke-linejoin="round" stroke-width="5"/>
  <path id="Trazado_116262" data-name="Trazado 116262" d="M260.308,237.493l-.343,8.618-8.618.343" transform="translate(-182.675 -172.606)" fill="none" stroke="#12263f" stroke-linecap="round" stroke-linejoin="round" stroke-width="5"/>
  <line id="Línea_160" data-name="Línea 160" y1="13.98" x2="13.98" transform="translate(62.94 8.229)" fill="none" stroke="#12263f" stroke-linecap="round" stroke-linejoin="round" stroke-width="5"/>
  <path id="Trazado_116263" data-name="Trazado 116263" d="M251.969,27.384l8.618.343.343,8.618" transform="translate(-183.127 -19.902)" fill="none" stroke="#12263f" stroke-linecap="round" stroke-linejoin="round" stroke-width="5"/>
  <g id="Grupo_80604" data-name="Grupo 80604">
    <g id="Grupo_80603" data-name="Grupo 80603" clip-path="url(#clip-path)">
      <line id="Línea_161" data-name="Línea 161" x1="17.086" transform="translate(1.868 40.605)" fill="none" stroke="#12263f" stroke-linecap="round" stroke-linejoin="round" stroke-width="5"/>
      <path id="Trazado_116264" data-name="Trazado 116264" d="M10.224,125.113,4.393,131.63l5.832,6.517" transform="translate(-3.193 -90.93)" fill="none" stroke="#12263f" stroke-linecap="round" stroke-linejoin="round" stroke-width="5"/>
    </g>
  </g>
  <line id="Línea_162" data-name="Línea 162" x1="12.566" y2="12.566" transform="translate(11.179 60.399)" fill="none" stroke="#12263f" stroke-linecap="round" stroke-linejoin="round" stroke-width="5"/>
  <path id="Trazado_116265" data-name="Trazado 116265" d="M38.182,237.493l.343,8.618,8.618.343" transform="translate(-27.75 -172.606)" fill="none" stroke="#12263f" stroke-linecap="round" stroke-linejoin="round" stroke-width="5"/>
  <line id="Línea_163" data-name="Línea 163" x1="13.98" y1="13.98" transform="translate(11.144 8.229)" fill="none" stroke="#12263f" stroke-linecap="round" stroke-linejoin="round" stroke-width="5"/>
  <path id="Trazado_116266" data-name="Trazado 116266" d="M46.521,27.384l-8.618.343-.343,8.618" transform="translate(-27.298 -19.902)" fill="none" stroke="#12263f" stroke-linecap="round" stroke-linejoin="round" stroke-width="5"/>
  <g id="Grupo_80606" data-name="Grupo 80606">
    <g id="Grupo_80605" data-name="Grupo 80605" clip-path="url(#clip-path)">
      <path id="Trazado_116267" data-name="Trazado 116267" d="M146.863,13.227a8.8,8.8,0,1,1-8.774-8.834A8.8,8.8,0,0,1,146.863,13.227Z" transform="translate(-93.94 -3.193)" fill="none" stroke="#12263f" stroke-linecap="round" stroke-linejoin="round" stroke-width="5"/>
      <path id="Trazado_116268" data-name="Trazado 116268" d="M101.659,123.143h0a7.936,7.936,0,0,1-7.544-5.194,10.267,10.267,0,0,1-.6-3.108l-.54-15.315a9.23,9.23,0,0,1,7.02-9,42.259,42.259,0,0,1,11.649-1.372A42.239,42.239,0,0,1,123.27,90.59a9.211,9.211,0,0,1,6.954,9.048l-.666,15.305a10.331,10.331,0,0,1-.792,3.524,7.817,7.817,0,0,1-7.23,4.776" transform="translate(-67.568 -64.796)" fill="none" stroke="#12263f" stroke-linecap="round" stroke-linejoin="round" stroke-width="5"/>
      <path id="Trazado_116269" data-name="Trazado 116269" d="M160.473,161.68l-.1,23.867a3.247,3.247,0,0,0,3.247,3.261h2.81a3.247,3.247,0,0,0,3.246-3.167l1.235-49.895" transform="translate(-116.559 -98.657)" fill="none" stroke="#12263f" stroke-linecap="round" stroke-linejoin="round" stroke-width="5"/>
      <path id="Trazado_116270" data-name="Trazado 116270" d="M123.159,135.535l.86,49.928a3.247,3.247,0,0,0,3.247,3.191h2.8a3.247,3.247,0,0,0,3.247-3.247v-5.436" transform="translate(-89.51 -98.505)" fill="none" stroke="#12263f" stroke-linecap="round" stroke-linejoin="round" stroke-width="5"/>
    </g>
  </g>
</svg>
