<svg xmlns="http://www.w3.org/2000/svg" xmlns:xlink="http://www.w3.org/1999/xlink" width="85" height="85" viewBox="0 0 85 85">
  <defs>
    <clipPath id="clip-path">
      <rect id="Rectángulo_34089" data-name="Rectángulo 34089" width="40.019" height="38.924" fill="none" stroke="#12263f" stroke-width="2"/>
    </clipPath>
  </defs>
  <g id="Grupo_80638" data-name="Grupo 80638" transform="translate(-810 -4949)">
    <circle id="Elipse_4760" data-name="Elipse 4760" cx="42.5" cy="42.5" r="42.5" transform="translate(810 4949)" fill="#cce951"/>
    <g id="Grupo_80585" data-name="Grupo 80585" transform="translate(832 4972)">
      <g id="Grupo_80584" data-name="Grupo 80584" clip-path="url(#clip-path)">
        <path id="Trazado_116212" data-name="Trazado 116212" d="M40.43,31.157A18.614,18.614,0,0,0,41.824,26.7,18.731,18.731,0,1,0,27.663,41.625a18.63,18.63,0,0,0,4.905-1.914" transform="translate(-4.012 -4.011)" fill="none" stroke="#12263f" stroke-linecap="round" stroke-linejoin="round" stroke-width="2"/>
        <path id="Trazado_116213" data-name="Trazado 116213" d="M92.712,39.613a9.222,9.222,0,0,1-.99,1.032,5.264,5.264,0,0,1-3.49,1.474c-4.952,0-8.966-8.4-8.966-18.752S83.28,4.615,88.232,4.615c3.625,0,6.748,4.5,8.161,10.975" transform="translate(-68.886 -4.011)" fill="none" stroke="#12263f" stroke-linecap="round" stroke-linejoin="round" stroke-width="2"/>
        <line id="Línea_118" data-name="Línea 118" x1="12.24" transform="translate(0.604 19.356)" fill="none" stroke="#12263f" stroke-linecap="round" stroke-linejoin="round" stroke-width="2"/>
        <path id="Trazado_116214" data-name="Trazado 116214" d="M68.72,52.875a28.476,28.476,0,0,1-28.067,0" transform="translate(-35.33 -45.951)" fill="none" stroke="#12263f" stroke-linecap="round" stroke-linejoin="round" stroke-width="2"/>
        <path id="Trazado_116215" data-name="Trazado 116215" d="M48.689,219.2a26.193,26.193,0,0,0-8.036,3.085" transform="translate(-35.33 -190.496)" fill="none" stroke="#12263f" stroke-linecap="round" stroke-linejoin="round" stroke-width="2"/>
        <path id="Trazado_116216" data-name="Trazado 116216" d="M228.194,216.615l6.067,6.067a2.278,2.278,0,0,1-3.221,3.222l-6.067-6.067" transform="translate(-195.513 -188.25)" fill="none" stroke="#12263f" stroke-linecap="round" stroke-linejoin="round" stroke-width="2"/>
        <path id="Trazado_116217" data-name="Trazado 116217" d="M132.059,127.046a9.16,9.16,0,1,1,2.337-1.973" transform="translate(-102.745 -95.587)" fill="none" stroke="#12263f" stroke-linecap="round" stroke-linejoin="round" stroke-width="2"/>
        <path id="Trazado_116218" data-name="Trazado 116218" d="M156.384,140.429a5.366,5.366,0,1,1-1.357-.988A5.348,5.348,0,0,1,156.384,140.429Z" transform="translate(-127.936 -120.673)" fill="none" stroke="#12263f" stroke-linecap="round" stroke-linejoin="round" stroke-width="2"/>
        <line id="Línea_119" data-name="Línea 119" x2="1.934" transform="translate(36.174 19.552)" fill="none" stroke="#12263f" stroke-linecap="round" stroke-linejoin="round" stroke-width="2"/>
      </g>
    </g>
  </g>
</svg>
