<svg xmlns="http://www.w3.org/2000/svg" xmlns:xlink="http://www.w3.org/1999/xlink" width="190" height="190" viewBox="0 0 190 190">
  <defs>
    <clipPath id="clip-path">
      <rect id="Rectángulo_34023" data-name="Rectángulo 34023" width="82.779" height="66.685" fill="none"/>
    </clipPath>
  </defs>
  <g id="Grupo_80641" data-name="Grupo 80641" transform="translate(-495 -5456.557)">
    <g id="Grupo_80530" data-name="Grupo 80530" transform="translate(0 791.557)">
      <circle id="Elipse_4748" data-name="Elipse 4748" cx="95" cy="95" r="95" transform="translate(495 4665)" fill="#cce951"/>
      <g id="Grupo_80526" data-name="Grupo 80526" transform="translate(548.48 4727.109)">
        <g id="Grupo_80525" data-name="Grupo 80525" transform="translate(0 0)" clip-path="url(#clip-path)">
          <path id="Trazado_115827" data-name="Trazado 115827" d="M19.7,3.633H1.978A1.977,1.977,0,0,0,0,5.611V65.986a1.978,1.978,0,0,0,1.978,1.978H19.7a1.978,1.978,0,0,0,1.978-1.978V5.611A1.978,1.978,0,0,0,19.7,3.633M10.838,63.069a4.895,4.895,0,1,1,4.895-4.9,4.895,4.895,0,0,1-4.895,4.9m6.992-24.242a.515.515,0,0,1-.515.515H4.361a.515.515,0,0,1-.515-.515V9.568a.515.515,0,0,1,.515-.515h2.2l3.783,3.783a.7.7,0,0,0,.988,0l3.783-3.783h2.2a.515.515,0,0,1,.515.515Z" transform="translate(0 -1.279)" fill="#37474f"/>
          <path id="Trazado_115828" data-name="Trazado 115828" d="M18.434,24.682H8.645a.972.972,0,1,1,0-1.944h9.789a.972.972,0,1,1,0,1.944" transform="translate(-2.701 -8.003)" fill="#37474f"/>
          <path id="Trazado_115829" data-name="Trazado 115829" d="M18.434,31.348H8.645a.972.972,0,1,1,0-1.944h9.789a.972.972,0,1,1,0,1.944" transform="translate(-2.701 -10.349)" fill="#37474f"/>
          <path id="Trazado_115830" data-name="Trazado 115830" d="M18.434,38.015H8.645a.972.972,0,1,1,0-1.944h9.789a.972.972,0,1,1,0,1.944" transform="translate(-2.701 -12.696)" fill="#37474f"/>
          <path id="Trazado_115831" data-name="Trazado 115831" d="M18.434,44.682H8.645a.972.972,0,1,1,0-1.944h9.789a.972.972,0,1,1,0,1.944" transform="translate(-2.701 -15.042)" fill="#37474f"/>
          <path id="Trazado_115832" data-name="Trazado 115832" d="M18.434,51.348H8.645a.972.972,0,1,1,0-1.944h9.789a.972.972,0,1,1,0,1.944" transform="translate(-2.701 -17.389)" fill="#37474f"/>
          <path id="Trazado_115833" data-name="Trazado 115833" d="M58.7,3.633H40.978A1.977,1.977,0,0,0,39,5.611V65.986a1.978,1.978,0,0,0,1.978,1.978H58.7a1.978,1.978,0,0,0,1.978-1.978V5.611A1.978,1.978,0,0,0,58.7,3.633M49.838,63.069a4.895,4.895,0,1,1,4.895-4.9,4.895,4.895,0,0,1-4.895,4.9m6.992-24.242a.515.515,0,0,1-.515.515H43.361a.515.515,0,0,1-.515-.515V9.568a.515.515,0,0,1,.515-.515h2.2l3.783,3.783a.7.7,0,0,0,.988,0l3.783-3.783h2.2a.515.515,0,0,1,.515.515Z" transform="translate(-13.727 -1.279)" fill="#37474f"/>
          <path id="Trazado_115834" data-name="Trazado 115834" d="M57.434,24.682H47.645a.972.972,0,1,1,0-1.944h9.789a.972.972,0,0,1,0,1.944" transform="translate(-16.427 -8.003)" fill="#37474f"/>
          <path id="Trazado_115835" data-name="Trazado 115835" d="M57.434,31.348H47.645a.972.972,0,1,1,0-1.944h9.789a.972.972,0,0,1,0,1.944" transform="translate(-16.427 -10.349)" fill="#37474f"/>
          <path id="Trazado_115836" data-name="Trazado 115836" d="M57.434,38.015H47.645a.972.972,0,1,1,0-1.944h9.789a.972.972,0,0,1,0,1.944" transform="translate(-16.427 -12.696)" fill="#37474f"/>
          <path id="Trazado_115837" data-name="Trazado 115837" d="M57.434,44.682H47.645a.972.972,0,1,1,0-1.944h9.789a.972.972,0,0,1,0,1.944" transform="translate(-16.427 -15.042)" fill="#37474f"/>
          <path id="Trazado_115838" data-name="Trazado 115838" d="M57.434,51.348H47.645a.972.972,0,1,1,0-1.944h9.789a.972.972,0,0,1,0,1.944" transform="translate(-16.427 -17.389)" fill="#37474f"/>
          <path id="Trazado_115839" data-name="Trazado 115839" d="M109.384,60.655,96.967,1.571A1.979,1.979,0,0,0,94.625.042L77.282,3.686a1.978,1.978,0,0,0-1.529,2.343L88.171,65.114a1.979,1.979,0,0,0,2.343,1.529L107.855,63a1.978,1.978,0,0,0,1.529-2.343M86.959,38.142a.515.515,0,0,1-.61-.4L80.331,9.11a.515.515,0,0,1,.4-.61l2.153-.453,4.48,2.924a.7.7,0,0,0,.967-.2l2.924-4.48,2.153-.453a.516.516,0,0,1,.61.4l6.018,28.634a.515.515,0,0,1-.4.61ZM98.178,60.03a4.895,4.895,0,1,1,3.783-5.8,4.895,4.895,0,0,1-3.783,5.8" transform="translate(-26.648 0)" fill="#37474f"/>
          <path id="Trazado_115840" data-name="Trazado 115840" d="M87.834,23.945a.972.972,0,0,1-.2-1.923l9.581-2.013a.972.972,0,1,1,.4,1.9l-9.58,2.013a.978.978,0,0,1-.2.021" transform="translate(-30.573 -7.035)" fill="#37474f"/>
          <path id="Trazado_115841" data-name="Trazado 115841" d="M89.2,30.469a.972.972,0,0,1-.2-1.923l9.581-2.013a.972.972,0,1,1,.4,1.9l-9.58,2.013a.983.983,0,0,1-.2.021" transform="translate(-31.055 -9.331)" fill="#37474f"/>
          <path id="Trazado_115842" data-name="Trazado 115842" d="M90.576,36.993a.972.972,0,0,1-.2-1.923l9.581-2.013a.972.972,0,1,1,.4,1.9l-9.58,2.013a.978.978,0,0,1-.2.021" transform="translate(-31.538 -11.627)" fill="#37474f"/>
          <path id="Trazado_115843" data-name="Trazado 115843" d="M91.947,43.518a.972.972,0,0,1-.2-1.923l9.581-2.013a.972.972,0,0,1,.4,1.9L92.148,43.5a.977.977,0,0,1-.2.021" transform="translate(-32.02 -13.924)" fill="#37474f"/>
          <path id="Trazado_115844" data-name="Trazado 115844" d="M93.318,50.042a.972.972,0,0,1-.2-1.923l9.581-2.013a.972.972,0,1,1,.4,1.9l-9.58,2.013a.983.983,0,0,1-.2.021" transform="translate(-32.503 -16.22)" fill="#37474f"/>
        </g>
      </g>
    </g>
  </g>
</svg>
