<svg xmlns="http://www.w3.org/2000/svg" xmlns:xlink="http://www.w3.org/1999/xlink" width="85" height="85" viewBox="0 0 85 85">
  <defs>
    <clipPath id="clip-path">
      <rect id="Rect치ngulo_34079" data-name="Rect치ngulo 34079" width="54.182" height="43.239" fill="#fff"/>
    </clipPath>
  </defs>
  <g id="Grupo_80628" data-name="Grupo 80628" transform="translate(-810 -1299)">
    <circle id="Elipse_4757" data-name="Elipse 4757" cx="42.5" cy="42.5" r="42.5" transform="translate(810 1299)" fill="#387db8"/>
    <g id="Grupo_80577" data-name="Grupo 80577" transform="translate(825.318 1319.668)">
      <g id="Grupo_80576" data-name="Grupo 80576" clip-path="url(#clip-path)">
        <path id="Trazado_116185" data-name="Trazado 116185" d="M46.826,166.99H6.063a6.063,6.063,0,0,0,0,12.126H46.826a6.063,6.063,0,0,0,0-12.126m0,10.7H6.063a4.64,4.64,0,1,1,0-9.28H46.826a4.64,4.64,0,0,1,0,9.28" transform="translate(0 -135.877)" fill="#fff"/>
        <path id="Trazado_116186" data-name="Trazado 116186" d="M21.144,185.934a2.5,2.5,0,1,0,2.505,2.505,2.505,2.505,0,0,0-2.505-2.505" transform="translate(-15.166 -151.292)" fill="#fff"/>
        <path id="Trazado_116187" data-name="Trazado 116187" d="M239.773,186.087a2.5,2.5,0,1,0,2.505,2.505,2.505,2.505,0,0,0-2.505-2.505" transform="translate(-193.061 -151.416)" fill="#fff"/>
        <path id="Trazado_116188" data-name="Trazado 116188" d="M196.047,186.087a2.5,2.5,0,1,0,2.505,2.505,2.505,2.505,0,0,0-2.505-2.505" transform="translate(-157.482 -151.416)" fill="#fff"/>
        <path id="Trazado_116189" data-name="Trazado 116189" d="M152.321,186.087a2.5,2.5,0,1,0,2.5,2.505,2.505,2.505,0,0,0-2.5-2.505" transform="translate(-121.903 -151.416)" fill="#fff"/>
        <path id="Trazado_116190" data-name="Trazado 116190" d="M108.6,186.087a2.5,2.5,0,1,0,2.505,2.505,2.505,2.505,0,0,0-2.505-2.505" transform="translate(-86.324 -151.416)" fill="#fff"/>
        <path id="Trazado_116191" data-name="Trazado 116191" d="M64.87,186.087a2.5,2.5,0,1,0,2.505,2.505,2.505,2.505,0,0,0-2.505-2.505" transform="translate(-50.745 -151.416)" fill="#fff"/>
        <path id="Trazado_116192" data-name="Trazado 116192" d="M57.816,55.479a2.9,2.9,0,1,0-2.9-2.9,2.9,2.9,0,0,0,2.9,2.9" transform="translate(-44.684 -40.423)" fill="#fff"/>
        <path id="Rect치ngulo_34078" data-name="Rect치ngulo 34078" d="M3.056,0H6.623A3.055,3.055,0,0,1,9.678,3.055V6.623A3.055,3.055,0,0,1,6.623,9.678H3.056A3.056,3.056,0,0,1,0,6.622V3.056A3.056,3.056,0,0,1,3.056,0Z" transform="translate(27.925 19.869)" fill="#fff"/>
        <path id="Trazado_116193" data-name="Trazado 116193" d="M26.508,98.3a1.275,1.275,0,0,0,1.548-.907l1.973-7.389v8.06a.285.285,0,0,0,.285.285h7.2a.285.285,0,0,0,.285-.285v-8.06L39.776,97.4a1.276,1.276,0,1,0,2.466-.658l-2.686-10.06a1.28,1.28,0,0,0-.065-.185.96.96,0,0,0-.181-.472h0l-.007-.01a2.085,2.085,0,0,0-.979-.784,12.1,12.1,0,0,0-4.406-.665,12.1,12.1,0,0,0-4.406.665,2.084,2.084,0,0,0-.978.784l-.008.011h0a.961.961,0,0,0-.181.472,1.278,1.278,0,0,0-.065.185L25.6,96.709a1.3,1.3,0,0,0,.91,1.6" transform="translate(-20.794 -68.806)" fill="#fff"/>
        <path id="Trazado_116194" data-name="Trazado 116194" d="M137.163,15.164l-3.609-.722a14.653,14.653,0,0,0-1.58-3.809l2.043-3.065a.291.291,0,0,0-.037-.368L130.2,3.417a.291.291,0,0,0-.368-.036l-3.065,2.043a14.659,14.659,0,0,0-3.809-1.58L122.233.234A.291.291,0,0,0,121.947,0H116.6a.291.291,0,0,0-.286.234l-.722,3.609a14.66,14.66,0,0,0-3.809,1.58l-3.065-2.043a.291.291,0,0,0-.368.036L104.565,7.2a.291.291,0,0,0-.036.368l2.043,3.065a14.652,14.652,0,0,0-1.58,3.809l-2.723.545a4.336,4.336,0,0,1,1.066,1.049l.008.01a2.962,2.962,0,0,1,.5,1.119q.032.1.058.194l1.644,6.156a14.72,14.72,0,0,0,1.027,2.1l-.332.5.348,1.3a3.248,3.248,0,0,1,0,1.7h2.566c0-.047,0-.095,0-.142v-8.54a2.566,2.566,0,0,1,1.677-2.4A8.45,8.45,0,1,1,122.81,25.8v3.178c0,.048,0,.1,0,.142h7.234a8.01,8.01,0,0,1,3.2.665l.736-.736a.291.291,0,0,0,.037-.368l-2.043-3.065a14.653,14.653,0,0,0,1.58-3.809l3.609-.722a.291.291,0,0,0,.234-.286v-5.35a.291.291,0,0,0-.234-.286" transform="translate(-83.215)" fill="#fff"/>
      </g>
    </g>
  </g>
</svg>
